<svg id="visual" viewBox="0 0 900 600" width="900" height="600" xmlns="http://www.w3.org/2000/svg" xmlns:xlink="http://www.w3.org/1999/xlink" version="1.1"><rect x="0" y="0" width="900" height="600" fill="#1B2735"></rect><path d="M0 187L30 183.8C60 180.7 120 174.3 180 178.5C240 182.7 300 197.3 360 205.2C420 213 480 214 540 214.3C600 214.7 660 214.3 720 202.5C780 190.7 840 167.3 870 155.7L900 144L900 0L870 0C840 0 780 0 720 0C660 0 600 0 540 0C480 0 420 0 360 0C300 0 240 0 180 0C120 0 60 0 30 0L0 0Z" fill="#090A0F" stroke-linecap="round" stroke-linejoin="miter"></path></svg>